PathFileType	4	(X/Y/Z)	OpenSim_Sub03_CSBaseline_Magnet.trc
DataRate	CameraRate	NumFrames	NumMarkers	Units	OrigDataRate	OrigDataStartFrame	OrigNumFrames
100	100	30	8	m	100	6967	9288
Frame#	Time	torso_imu_offset_imu	pelvis_imu_offset_imu	tibia_r_imu_offset_imu	femur_r_imu_offset_imu	tibia_l_imu_offset_imu	femur_l_imu_offset_imu	toes_r_imu_offset_imu	toes_l_imu_offset_imu
				X1	Y1	Z1	X2	Y2	Z2	X3	Y3	Z3	X4	Y4	Z4	X5	Y5	Z5	X6	Y6	Z6	X7	Y7	Z7	X8		Y8	Z8	

6967	69.66000000	-0.90162202	-0.13773696	0.15725702	-0.70382724	0.12464343	-0.60524928	-0.70363534	-0.33947005	-0.01056959	-0.67474958	-0.47267315	0.07064107	-0.55441581	0.55460141	0.22003499	-0.63681251	0.46094368	0.27806524	-0.65281173	-0.00732440	-0.47277446	-0.79330642	-0.06003312	-0.18094201
6968	69.67000000	-0.90557972	-0.13565429	0.15730834	-0.70026076	0.12429678	-0.60447242	-0.70867357	-0.32507666	-0.01220586	-0.67309762	-0.47735782	0.07728622	-0.55013635	0.55795624	0.22170448	-0.63694355	0.47075169	0.27616059	-0.64972439	-0.00464299	-0.47230120	-0.79379136	-0.05554697	-0.16903684
6969	69.68000000	-0.90472598	-0.13421853	0.15956193	-0.70395054	0.12559316	-0.60211030	-0.70916764	-0.31549016	-0.01090114	-0.66834128	-0.47664389	0.07689894	-0.54463542	0.56501222	0.21877483	-0.63381066	0.47103727	0.27726783	-0.64740111	0.00051153	-0.47889745	-0.79754739	-0.05613184	-0.15999109
6970	69.69000000	-0.90575632	-0.13584703	0.15609181	-0.70784588	0.12286083	-0.59930685	-0.71641084	-0.31650842	-0.01562171	-0.66623249	-0.47690861	0.08628309	-0.53582686	0.57920357	0.21453027	-0.62979113	0.47637994	0.26998811	-0.65483483	-0.00450621	-0.47280752	-0.79929403	-0.06332944	-0.15497610
6971	69.70000000	-0.90758344	-0.13083886	0.15769378	-0.70855402	0.12165853	-0.59845021	-0.71206289	-0.31162829	-0.01170688	-0.65996518	-0.47656366	0.09011735	-0.53147638	0.58666555	0.20786320	-0.62952280	0.48150193	0.27199224	-0.65442494	-0.01700150	-0.46030214	-0.79968242	-0.06181700	-0.14072106
6972	69.71000000	-0.90738859	-0.13272049	0.15613739	-0.70643303	0.12063857	-0.60029060	-0.70988080	-0.31724868	-0.01395485	-0.66228167	-0.47773807	0.08938890	-0.52739808	0.59093918	0.20671601	-0.63030335	0.47854386	0.26663033	-0.66743428	-0.02938623	-0.44058787	-0.80418159	-0.05709191	-0.12343699
6973	69.72000000	-0.90675825	-0.13127562	0.15860169	-0.70667313	0.11643844	-0.60121069	-0.71076634	-0.32576367	-0.00991914	-0.65957454	-0.47786288	0.08896299	-0.51536816	0.60105852	0.20515162	-0.62968129	0.48659543	0.26145067	-0.68219296	-0.04022519	-0.43251154	-0.79961766	-0.06001559	-0.11536482
6974	69.73000000	-0.90521279	-0.13267655	0.15693104	-0.70621613	0.11491943	-0.60535232	-0.70500519	-0.33610611	-0.00559818	-0.65685891	-0.47540490	0.10018080	-0.50565400	0.61014851	0.19872182	-0.63012599	0.48830382	0.26003496	-0.68220721	-0.05883334	-0.42191006	-0.80400705	-0.05943504	-0.10465418
6975	69.74000000	-0.90811250	-0.13101465	0.15293962	-0.70783239	0.11179059	-0.60419859	-0.70216242	-0.34144368	0.00121091	-0.65358000	-0.47933665	0.10437891	-0.50051569	0.62296991	0.19258814	-0.62788400	0.48671017	0.26242554	-0.68817805	-0.07272761	-0.40764393	-0.80682675	-0.06023988	-0.08568243
6976	69.75000000	-0.90959417	-0.13387648	0.15003448	-0.71043438	0.10909504	-0.60588485	-0.69675954	-0.35075952	0.01191552	-0.65307016	-0.47898504	0.11197625	-0.49035063	0.62409360	0.18984633	-0.63074464	0.48975170	0.25948288	-0.69511802	-0.09063690	-0.39783969	-0.80317158	-0.06317534	-0.06954429
6977	69.76000000	-0.90930126	-0.13520666	0.14807928	-0.70852896	0.11618023	-0.60951145	-0.68917539	-0.35570829	0.01961061	-0.64809778	-0.47865689	0.11761621	-0.47844591	0.63452838	0.18535872	-0.62641811	0.49079795	0.25831375	-0.69808894	-0.11125256	-0.39029195	-0.80287671	-0.06779981	-0.04612769
6978	69.77000000	-0.90979752	-0.13520329	0.15169591	-0.70815264	0.12192783	-0.60102828	-0.69035530	-0.36705644	0.03134813	-0.64506979	-0.48006645	0.11917524	-0.47507550	0.64899363	0.17626100	-0.62681497	0.49216423	0.24866187	-0.69842305	-0.12339209	-0.38710432	-0.80263514	-0.07248904	-0.02990138
6979	69.78000000	-0.91224451	-0.13542047	0.14858775	-0.70806691	0.12292462	-0.59304012	-0.68643215	-0.37327597	0.03875637	-0.64127427	-0.48726334	0.12363933	-0.46094440	0.65604494	0.16214429	-0.62872111	0.49075869	0.24936734	-0.69687785	-0.12811888	-0.38414800	-0.79655819	-0.07622716	-0.00681967
6980	69.79000000	-0.91341268	-0.13457952	0.14654181	-0.71024302	0.12935081	-0.59602465	-0.68102431	-0.37991279	0.04319596	-0.63707965	-0.48801661	0.13327255	-0.45116976	0.66383929	0.15748877	-0.63438088	0.48449324	0.24775593	-0.69915042	-0.13902253	-0.37643493	-0.79765485	-0.07413551	0.01779546
6981	69.80000000	-0.91060333	-0.13319590	0.14941923	-0.70793340	0.12914802	-0.59290758	-0.66968993	-0.39089746	0.05321676	-0.63889270	-0.48623502	0.13830937	-0.44290926	0.67522043	0.14717129	-0.63674493	0.48500384	0.24547922	-0.70103558	-0.14586026	-0.37335513	-0.79693449	-0.07258590	0.05055330
6982	69.81000000	-0.90997376	-0.13649334	0.14803161	-0.71518416	0.12809571	-0.59030820	-0.66829012	-0.39472822	0.06440235	-0.63202098	-0.49689155	0.14115694	-0.42821583	0.68687945	0.13698239	-0.64116287	0.48033323	0.23689911	-0.70280605	-0.14873563	-0.37642862	-0.79344864	-0.07527109	0.08521218
6983	69.82000000	-0.91087244	-0.14043530	0.13941225	-0.71883637	0.12992826	-0.58454359	-0.66361454	-0.40506990	0.07015093	-0.62442351	-0.50079542	0.14655065	-0.41193634	0.70023387	0.12490442	-0.64658253	0.48452849	0.22773144	-0.70136864	-0.15177188	-0.37086747	-0.78597054	-0.06672058	0.12058671
6984	69.83000000	-0.90953908	-0.14084583	0.14456016	-0.72350338	0.12596816	-0.57808141	-0.65748203	-0.41743370	0.07725379	-0.62076915	-0.50215683	0.15037873	-0.40428000	0.70876860	0.11295675	-0.65648003	0.48008819	0.21765089	-0.70159783	-0.15392855	-0.36809545	-0.77751505	-0.05879438	0.15450219
6985	69.84000000	-0.91145366	-0.13958031	0.13772137	-0.72656804	0.12382816	-0.57799787	-0.65084397	-0.42283719	0.07831277	-0.61632731	-0.51488958	0.15324300	-0.38949621	0.71462695	0.10738189	-0.66644018	0.47334965	0.21211740	-0.70759633	-0.14857897	-0.36862253	-0.77156725	-0.05702841	0.19095728
6986	69.85000000	-0.91220744	-0.14268982	0.13885399	-0.72667806	0.12450947	-0.57875404	-0.64685287	-0.42747608	0.08537294	-0.61056734	-0.52368668	0.16029778	-0.37609659	0.72127326	0.10727447	-0.67196681	0.46664027	0.18964358	-0.70498545	-0.14676989	-0.36775039	-0.76334564	-0.04969495	0.22090669
6987	69.86000000	-0.91199248	-0.14741193	0.13941097	-0.72876028	0.12158632	-0.57871227	-0.64044391	-0.43556591	0.08597429	-0.60236392	-0.53510185	0.16740605	-0.35341583	0.72654751	0.10124836	-0.67969103	0.45589683	0.17601980	-0.70305052	-0.15210084	-0.36187110	-0.74970881	-0.03090637	0.24874988
6988	69.87000000	-0.90995369	-0.14942034	0.13673647	-0.72717763	0.12318625	-0.58509927	-0.64266632	-0.43579890	0.08860848	-0.59475722	-0.54014000	0.16794848	-0.33803010	0.74196663	0.09867811	-0.69008418	0.44447775	0.16888093	-0.70742803	-0.15447763	-0.35836359	-0.73793428	-0.02404059	0.28244530
6989	69.88000000	-0.91250154	-0.14399519	0.13330256	-0.72768432	0.12152899	-0.58332406	-0.63554080	-0.44377897	0.09733414	-0.58533584	-0.54832139	0.17307987	-0.32493823	0.74877839	0.08906945	-0.69827871	0.43707377	0.15313200	-0.70926376	-0.15162591	-0.35884870	-0.72508425	-0.00884425	0.30864533
6990	69.89000000	-0.90984365	-0.14129388	0.13486387	-0.73317201	0.12355919	-0.58629547	-0.62915781	-0.45155682	0.09733488	-0.58105623	-0.56063593	0.17557953	-0.30772994	0.75708681	0.08517664	-0.71186757	0.42229126	0.14069773	-0.71041259	-0.15118951	-0.35751344	-0.70893347	0.01173754	0.34090572
6991	69.90000000	-0.91334939	-0.14524178	0.13090407	-0.72858847	0.11900643	-0.59124029	-0.62948787	-0.45265318	0.09674274	-0.57440374	-0.57102377	0.17817442	-0.29293553	0.76739207	0.07785009	-0.72609242	0.40745248	0.13683345	-0.70778215	-0.15647308	-0.36095494	-0.69989875	0.02856553	0.36566085
6992	69.91000000	-0.91066649	-0.14698441	0.13753729	-0.72629145	0.11585199	-0.59239851	-0.62666265	-0.45423589	0.10150240	-0.56638977	-0.57501942	0.18097502	-0.28344454	0.77300616	0.06157092	-0.72807604	0.39947614	0.12508354	-0.70548681	-0.15744105	-0.35126213	-0.68733077	0.05325389	0.38965360
6993	69.92000000	-0.91154282	-0.14279298	0.13645904	-0.72792274	0.12319467	-0.59431722	-0.62978409	-0.46324688	0.10353298	-0.55749858	-0.57741659	0.18179892	-0.26686310	0.77710200	0.04441754	-0.73455594	0.38768581	0.11521466	-0.70474497	-0.15157133	-0.35073233	-0.67557615	0.07467261	0.39594028
6994	69.93000000	-0.91041721	-0.14034592	0.14038049	-0.72621019	0.12169747	-0.58846348	-0.63064031	-0.46223583	0.10632361	-0.55647764	-0.59379551	0.18168634	-0.25192767	0.77844084	0.03553741	-0.74428622	0.37025520	0.11149386	-0.70692146	-0.15400702	-0.35361052	-0.67587537	0.09779634	0.39571512
6995	69.94000000	-0.91043642	-0.13680540	0.14684843	-0.72857319	0.11710095	-0.59157409	-0.61993084	-0.46981814	0.10688110	-0.55186953	-0.60102435	0.18147220	-0.24014552	0.78318933	0.02607395	-0.75055356	0.36705659	0.10121026	-0.70550459	-0.15665067	-0.35131746	-0.67827049	0.12510838	0.38865149
6996	69.95000000	-0.91290906	-0.13712923	0.14946614	-0.72744615	0.11985259	-0.59478279	-0.62259490	-0.47656443	0.10729682	-0.54335966	-0.61165845	0.17295328	-0.23129093	0.78970073	0.00971658	-0.75547003	0.34914854	0.10154679	-0.70486464	-0.15374601	-0.35170463	-0.67832325	0.14976518	0.37520848
